<?xml version="1.0" encoding="UTF-8"?>
<svg version="1.1" xmlns="http://www.w3.org/2000/svg" width="500" height="500">
<path d="M0 0 C24.09 0 48.18 0 73 0 C73.33 23.43 73.66 46.86 74 71 C80.435 60.605 80.435 60.605 87 50 C92.875 40.6875 92.875 40.6875 95.8515625 36.0859375 C98.25666301 32.30213638 100.40856697 28.42945196 102.5234375 24.4765625 C111.49354326 8.1848405 111.49354326 8.1848405 116.22802734 5.94677734 C121.0435512 4.96349206 125.32217703 5.6722605 130 7 C130.28875 6.21625 130.5775 5.4325 130.875 4.625 C132 2 132 2 134 0 C136.43937054 -0.18769518 138.76414728 -0.25198605 141.20361328 -0.22705078 C141.9451767 -0.22734283 142.68674011 -0.22763489 143.45077515 -0.22793579 C145.90740571 -0.22653994 148.36373478 -0.21096698 150.8203125 -0.1953125 C152.52139114 -0.19158327 154.22247192 -0.18873587 155.92355347 -0.18673706 C160.40510976 -0.17909349 164.88653683 -0.15943884 169.36804199 -0.1373291 C173.93935396 -0.11688622 178.51068677 -0.10773868 183.08203125 -0.09765625 C192.05474434 -0.07619359 201.02736143 -0.04204896 210 0 C208.9026753 1.72899221 207.8047346 3.45759347 206.70654297 5.18603516 C206.09519501 6.14869293 205.48384705 7.11135071 204.85397339 8.10317993 C201.99909585 12.56390553 199.06777501 16.97194155 196.125 21.375 C195.11457642 22.88864136 195.11457642 22.88864136 194.08374023 24.43286133 C181.68726383 42.97335593 169.15871505 61.4256298 156.65586853 79.89445496 C154.32997248 83.3306931 152.0049849 86.76754535 149.68014526 90.20449829 C148.02345619 92.65283528 146.36538277 95.10023083 144.70727539 97.54760742 C143.70061157 99.03559581 142.69401601 100.52363037 141.6875 102.01171875 C141.22520493 102.69322998 140.76290985 103.37474121 140.28660583 104.0769043 C137.98998018 107.44666326 137.98998018 107.44666326 136 111 C136.76600582 113.01925867 136.76600582 113.01925867 137.9375 115.125 C138.50791016 116.21167969 138.50791016 116.21167969 139.08984375 117.3203125 C139.39019531 117.87460938 139.69054687 118.42890625 140 119 C146.16289078 110.61335669 146.16289078 110.61335669 152 102 C155.83278677 103.27759559 156.35887785 105.10360166 158.13270569 108.57211304 C158.52332687 109.36042511 158.91394806 110.14873718 159.31640625 110.9609375 C159.73236557 111.78010651 160.14832489 112.59927551 160.57688904 113.44326782 C161.91474776 116.08258605 163.23898991 118.72846188 164.5625 121.375 C165.85784638 123.94384882 167.15599824 126.51126549 168.45443726 129.07855225 C169.32500117 130.80021653 170.19447752 132.52243114 171.06289673 134.24517822 C175.23732244 142.51250359 179.55571454 150.70108089 183.88595581 158.88751221 C186.62185282 164.07541148 189.30716786 169.2896607 192 174.5 C196.19062972 182.59264542 200.38742738 190.68181677 204.625 198.75 C205.01429688 199.49314453 205.40359375 200.23628906 205.8046875 201.00195312 C207.55540045 204.32769129 209.34879648 207.59958608 211.2734375 210.828125 C213 214 213 214 213 217 C205.74 217 198.48 217 191 217 C191.99 219.31 192.98 221.62 194 224 C167.93 224 141.86 224 115 224 C109.12258564 212.83291272 103.32476511 201.76335193 97.9375 190.375 C96.82424818 188.02737354 95.70768225 185.68139025 94.58984375 183.3359375 C94.11409912 182.33095215 93.63835449 181.3259668 93.14819336 180.29052734 C92.19633324 178.09124745 92.19633324 178.09124745 91 177 C90.59007812 177.6496875 90.18015625 178.299375 89.7578125 178.96875 C89.21898437 179.8040625 88.68015625 180.639375 88.125 181.5 C87.59132813 182.3353125 87.05765625 183.170625 86.5078125 184.03125 C86.01023437 184.6809375 85.51265625 185.330625 85 186 C84.34 186 83.68 186 83 186 C82.67 180.39 82.34 174.78 82 169 C73.49818243 179.42484774 72.83760652 186.74305534 73 199.75 C72.99189017 201.4297088 72.98019652 203.10940428 72.96484375 204.7890625 C72.92869362 208.86197663 72.96582543 212.92468308 73 217 C66.73 217 60.46 217 54 217 C54 219.31 54 221.62 54 224 C29.91 224 5.82 224 -19 224 C-19 152.39 -19 80.78 -19 7 C-12.73 7 -6.46 7 0 7 C0 4.69 0 2.38 0 0 Z " fill="#FACC15" transform="translate(278,130)"/>
<path d="M0 0 C1.81951172 0.04060547 1.81951172 0.04060547 3.67578125 0.08203125 C6.66068311 0.15254074 9.64191838 0.25104924 12.625 0.375 C12.625 2.685 12.625 4.995 12.625 7.375 C15.925 7.375 19.225 7.375 22.625 7.375 C22.625 5.065 22.625 2.755 22.625 0.375 C108.63871799 -6.26822027 108.63871799 -6.26822027 128.2640686 9.72250366 C130.71197504 11.98696759 132.96077602 14.33145957 135.1875 16.8125 C136.24245667 17.94395447 136.24245667 17.94395447 137.31872559 19.0982666 C146.73277254 29.69440248 148.84162967 39.48589689 148.26234436 53.479599 C148.09305982 56.11452783 147.86547557 58.74561249 147.625 61.375 C141.355 61.375 135.085 61.375 128.625 61.375 C128.625 63.685 128.625 65.995 128.625 68.375 C106.515 68.375 84.405 68.375 61.625 68.375 C61.625 61.445 61.625 54.515 61.625 47.375 C45.455 47.375 29.285 47.375 12.625 47.375 C12.625 56.945 12.625 66.515 12.625 76.375 C15.59781982 76.34881592 18.57063965 76.32263184 21.63354492 76.2956543 C31.45224943 76.21283088 41.27096931 76.15758643 51.08993053 76.11593914 C57.04362136 76.08983806 62.9969545 76.05442971 68.95043945 75.99780273 C74.6951938 75.94350265 80.43960395 75.91358332 86.18459511 75.90061378 C88.37710299 75.89137042 90.56959188 75.87332029 92.76195335 75.84634972 C95.83154479 75.81008696 98.89971148 75.80505362 101.96948242 75.80737305 C102.87722916 75.78939667 103.78497589 75.77142029 104.7202301 75.75289917 C109.16333306 75.7892604 111.00104618 75.87149347 114.5622406 78.74523926 C115.2429512 79.6130603 115.9236618 80.48088135 116.625 81.375 C118.45533145 83.19441061 120.2860848 85.01339685 122.1171875 86.83203125 C123.70238211 88.4098401 125.28708966 89.98813633 126.87158203 91.56665039 C127.95271017 92.64275379 129.03473467 93.71795744 130.11767578 94.79223633 C141.11652905 105.70576232 141.11652905 105.70576232 145.93408203 111.4675293 C147.73691548 113.60005522 147.73691548 113.60005522 150.6887207 115.90673828 C157.45506319 122.68376999 156.32384417 135.63066216 156.6875 144.5625 C156.73748138 145.78076477 156.78746277 146.99902954 156.83895874 148.25421143 C157.20090536 166.48250697 152.72173756 179.01625846 140.30909061 192.08836842 C137.90917568 194.53704022 135.43322806 196.89960069 132.9375 199.25 C132.4501601 199.71547115 131.96282021 200.18094231 131.46071243 200.66051865 C128.15503866 203.80748892 124.76565253 206.83446577 121.30078125 209.8046875 C120.42705872 210.56553146 119.55333618 211.32637543 118.65313721 212.11027527 C112.61708867 216.92220705 108.09672579 218.20274483 100.37190247 218.12561035 C97.60701922 218.11469572 97.60701922 218.11469572 95.90513611 219.80596924 C95.3449453 220.6019754 95.3449453 220.6019754 94.7734375 221.4140625 C92.68329342 224.02947839 91.77836353 224.35186901 88.36816406 224.86621094 C84.31294545 224.96492015 80.30165561 224.89943476 76.25 224.75 C74.83208765 224.71987301 73.41411391 224.69250197 71.99609375 224.66796875 C68.53777787 224.60216243 65.08178182 224.49879659 61.625 224.375 C61.625 222.065 61.625 219.755 61.625 217.375 C57.995 217.375 54.365 217.375 50.625 217.375 C50.625 219.685 50.625 221.995 50.625 224.375 C39.08106213 224.65386428 27.5379337 224.86666803 15.99130535 224.99674606 C10.6286486 225.05920121 5.26830678 225.14380448 -0.09301758 225.28027344 C-5.27389695 225.41131379 -10.4525603 225.48254095 -15.63496971 225.51352692 C-17.60511339 225.53558657 -19.57514465 225.57866928 -21.54433632 225.64376068 C-37.74775422 226.15773091 -37.74775422 226.15773091 -42.94955444 221.81262207 C-45.81794808 218.93987285 -48.09668286 215.73217309 -50.375 212.375 C-51.83947165 210.57130206 -53.31634969 208.77750886 -54.8125 207 C-55.52664062 206.113125 -56.24078125 205.22625 -56.9765625 204.3125 C-60.31599122 200.22251563 -63.76231825 196.2277323 -67.21459961 192.23291016 C-68.17345187 191.12137849 -69.12421982 190.00281062 -70.06591797 188.87670898 C-71.48177246 187.19968836 -71.48177246 187.19968836 -73.71484375 185.19921875 C-76.42864938 180.58255647 -75.79142325 175.80163204 -75.625 170.5625 C-75.60695313 169.48806641 -75.58890625 168.41363281 -75.5703125 167.30664062 C-75.52330337 164.66237679 -75.45156366 162.01857317 -75.375 159.375 C-69.105 159.375 -62.835 159.375 -56.375 159.375 C-56.375 156.735 -56.375 154.095 -56.375 151.375 C-32.285 151.375 -8.195 151.375 16.625 151.375 C16.625 159.955 16.625 168.535 16.625 177.375 C31.475 177.375 46.325 177.375 61.625 177.375 C61.625 166.155 61.625 154.935 61.625 143.375 C57.4165332 143.42998657 57.4165332 143.42998657 53.12304688 143.48608398 C43.83930807 143.60222198 34.55553666 143.67945231 25.27126312 143.7376852 C19.64366641 143.7741721 14.01681578 143.8236403 8.38964844 143.90307617 C2.95606689 143.97929673 -2.4767984 144.02102446 -7.91087341 144.0391407 C-9.98094454 144.05204594 -12.05097773 144.07724781 -14.1207428 144.1151104 C-17.02731109 144.16615213 -19.93094419 144.17291458 -22.83789062 144.16967773 C-24.11320145 144.20742813 -24.11320145 144.20742813 -25.41427612 144.24594116 C-31.47859145 144.17317303 -34.43057894 142.30974716 -38.73445892 138.08773899 C-39.27583748 137.52253512 -39.81721603 136.95733126 -40.375 136.375 C-41.138125 135.66730469 -41.90125 134.95960938 -42.6875 134.23046875 C-43.244375 133.68003906 -43.80125 133.12960937 -44.375 132.5625 C-44.9525 131.99917969 -45.53 131.43585938 -46.125 130.85546875 C-47.375 129.375 -47.375 129.375 -47.375 127.375 C-48.19049316 126.99299438 -48.19049316 126.99299438 -49.02246094 126.60327148 C-60.52115835 120.59974858 -71.72529708 111.15915538 -76.35614014 98.74475098 C-80.88265657 83.43513006 -81.50070556 65.29510335 -75.375 50.375 C-69.94543305 40.94620568 -62.49146602 33.23630004 -54.6875 25.75 C-54.20136105 25.27990383 -53.71522209 24.80980766 -53.21435165 24.32546616 C-49.90863867 21.14772323 -46.51566469 18.09093344 -43.05078125 15.0859375 C-42.17696808 14.31247482 -41.30315491 13.53901215 -40.40286255 12.74211121 C-34.37905075 7.84944469 -29.90292198 6.5326032 -22.1341095 6.6194458 C-19.35560988 6.63028186 -19.35560988 6.63028186 -17.59214783 4.94458008 C-17.19822342 4.41372803 -16.80429901 3.88287598 -16.3984375 3.3359375 C-12.38327571 -1.68827019 -5.85859204 -0.24754614 0 0 Z " fill="#FACC15" transform="translate(90.375,129.625)"/>
</svg>
